<svg width="64" height="64" viewBox="0 0 64 64" fill="none" xmlns="http://www.w3.org/2000/svg">
<path d="M6.66675 25.3333H57.3334V50.6667H6.66675V25.3333Z" fill="white"/>
<path d="M6.66675 50.6667H57.3334V56H6.66675V50.6667Z" fill="#C4C4C4"/>
<path d="M36 32H52V56H36V32Z" fill="#455A64"/>
<path d="M12 32H30.6667V46.6667H12V32Z" fill="#E3F2FD"/>
<path d="M13.3333 33.3333H29.3333V45.3333H13.3333V33.3333Z" fill="#1E88E5"/>
<path d="M48.6667 44.6667C48.2667 44.6667 48 44.9333 48 45.3333V48C48 48.4 48.2667 48.6667 48.6667 48.6667C49.0667 48.6667 49.3333 48.4 49.3333 48V45.3333C49.3333 44.9333 49.0667 44.6667 48.6667 44.6667Z" fill="#90A4AE"/>
<path d="M32 29.3333C34.2091 29.3333 36 27.5425 36 25.3333C36 23.1242 34.2091 21.3333 32 21.3333C29.7909 21.3333 28 23.1242 28 25.3333C28 27.5425 29.7909 29.3333 32 29.3333Z" fill="#558B2F"/>
<path d="M48 29.3333C50.2091 29.3333 52 27.5425 52 25.3333C52 23.1242 50.2091 21.3333 48 21.3333C45.7909 21.3333 44 23.1242 44 25.3333C44 27.5425 45.7909 29.3333 48 29.3333Z" fill="#558B2F"/>
<path d="M16 29.3333C18.2091 29.3333 20 27.5425 20 25.3333C20 23.1242 18.2091 21.3333 16 21.3333C13.7909 21.3333 12 23.1242 12 25.3333C12 27.5425 13.7909 29.3333 16 29.3333Z" fill="#558B2F"/>
<path d="M53.3333 8H10.6667C9.2 8 8 9.2 8 10.6667V14.6667H56V10.6667C56 9.2 54.8 8 53.3333 8Z" fill="#7CB342"/>
<path d="M28 14.6667H36V25.3333H28V14.6667Z" fill="#7CB342"/>
<path d="M49.3334 14.6667H42.6667L44.0001 25.3333H52.0001L49.3334 14.6667Z" fill="#7CB342"/>
<path d="M14.6667 14.6667H21.3333L20 25.3333H12L14.6667 14.6667Z" fill="#7CB342"/>
<path d="M40 29.3333C42.2091 29.3333 44 27.5425 44 25.3333C44 23.1242 42.2091 21.3333 40 21.3333C37.7909 21.3333 36 23.1242 36 25.3333C36 27.5425 37.7909 29.3333 40 29.3333Z" fill="#185ADB"/>
<path d="M60 25.3333C60 27.6 58.2667 29.3333 56 29.3333C53.7333 29.3333 52 27.6 52 25.3333C52 23.0667 53.7333 21.3333 56 21.3333L60 25.3333Z" fill="#185ADB"/>
<path d="M24 29.3333C26.2091 29.3333 28 27.5425 28 25.3333C28 23.1242 26.2091 21.3333 24 21.3333C21.7909 21.3333 20 23.1242 20 25.3333C20 27.5425 21.7909 29.3333 24 29.3333Z" fill="#185ADB"/>
<path d="M4 25.3333C4 27.6 5.73333 29.3333 8 29.3333C10.2667 29.3333 12 27.6 12 25.3333C12 23.0667 10.2667 21.3333 8 21.3333L4 25.3333Z" fill="#185ADB"/>
<path d="M42.6667 14.6667H36V25.3333H44L42.6667 14.6667Z" fill="#185ADB"/>
<path d="M55.9999 14.6667H49.3333L51.9999 25.3333H59.9999L55.9999 14.6667Z" fill="#185ADB"/>
<path d="M21.3333 14.6667H28V25.3333H20L21.3333 14.6667Z" fill="#185ADB"/>
<path d="M8 14.6667H14.6667L12 25.3333H4L8 14.6667Z" fill="#185ADB"/>
</svg>
